<svg id="Layer_1" enable-background="new 0 0 256 256" height="512" viewBox="0 0 256 256" width="512" xmlns="http://www.w3.org/2000/svg"><g><g><g><g><g><g><path d="m215.44 249.305h-20.333c-9.098 0-16.5-7.402-16.5-16.5v-52.109c0-4.136-3.364-7.5-7.5-7.5h-20.667c-4.136 0-7.5 3.364-7.5 7.5v52.109c0 9.098-7.402 16.5-16.5 16.5h-21.334c-9.098 0-16.5-7.402-16.5-16.5v-86.001c0-2.485 2.015-4.5 4.5-4.5s4.5 2.015 4.5 4.5v86.001c0 4.136 3.364 7.5 7.5 7.5h21.334c4.136 0 7.5-3.364 7.5-7.5v-52.109c0-9.098 7.402-16.5 16.5-16.5h20.667c9.098 0 16.5 7.402 16.5 16.5v52.109c0 4.136 3.364 7.5 7.5 7.5h20.333c4.136 0 7.5-3.364 7.5-7.5v-141.561c0-2.485 2.015-4.5 4.5-4.5s4.5 2.015 4.5 4.5v141.561c0 9.097-7.402 16.5-16.5 16.5z" fill="#e0ebfc"/></g></g></g></g></g><g><g><g><g><g><path d="m215.44 251.305h-20.333c-10.201 0-18.5-8.299-18.5-18.5v-52.109c0-3.032-2.467-5.5-5.5-5.5h-20.667c-3.033 0-5.5 2.468-5.5 5.5v52.109c0 10.201-8.299 18.5-18.5 18.5h-21.334c-10.201 0-18.5-8.299-18.5-18.5v-86.001c0-3.584 2.916-6.5 6.5-6.5s6.5 2.916 6.5 6.5v86.001c0 3.032 2.467 5.5 5.5 5.5h21.334c3.033 0 5.5-2.468 5.5-5.5v-52.109c0-10.201 8.299-18.5 18.5-18.5h20.667c10.201 0 18.5 8.299 18.5 18.5v52.109c0 3.032 2.467 5.5 5.5 5.5h20.333c3.033 0 5.5-2.468 5.5-5.5v-141.561c0-3.584 2.916-6.5 6.5-6.5s6.5 2.916 6.5 6.5v141.561c0 10.201-8.299 18.5-18.5 18.5zm-65-80.11h20.667c5.238 0 9.5 4.262 9.5 9.5v52.109c0 7.995 6.505 14.5 14.5 14.5h20.333c7.995 0 14.5-6.505 14.5-14.5v-141.56c0-1.379-1.122-2.5-2.5-2.5s-2.5 1.121-2.5 2.5v141.561c0 5.238-4.262 9.5-9.5 9.5h-20.333c-5.238 0-9.5-4.262-9.5-9.5v-52.109c0-7.995-6.505-14.5-14.5-14.5h-20.667c-7.995 0-14.5 6.505-14.5 14.5v52.109c0 5.238-4.262 9.5-9.5 9.5h-21.334c-5.238 0-9.5-4.262-9.5-9.5v-86.001c0-1.379-1.122-2.5-2.5-2.5s-2.5 1.121-2.5 2.5v86.001c0 7.995 6.505 14.5 14.5 14.5h21.334c7.995 0 14.5-6.505 14.5-14.5v-52.109c0-5.239 4.262-9.501 9.5-9.501z" fill="#3762cc"/></g></g></g></g></g><g><g><g><g><path d="m87.106 45.945h12v76h-12z" fill="#a4c9ff"/></g></g></g></g><g><g><g><g><path d="m99.106 123.945h-12c-1.104 0-2-.896-2-2v-76c0-1.104.896-2 2-2h12c1.104 0 2 .896 2 2v76c0 1.105-.896 2-2 2zm-10-4h8v-72h-8z" fill="#3762cc"/></g></g></g></g><g><g><g><g><circle cx="93.106" cy="42.029" fill="#a4c9ff" r="35.333"/></g></g></g></g><g><g><g><g><circle cx="93.106" cy="42.029" fill="#e0ebfc" r="26.896"/></g></g></g></g><g><g><g><g><path d="m107.603 19.393c-4.187-2.691-9.161-4.26-14.497-4.26s-10.31 1.568-14.497 4.26l10.236 15.982c1.231-.791 2.692-1.256 4.261-1.256 1.57 0 3.03.465 4.262 1.257z" fill="#ffea92"/></g></g></g></g><g><g><g><g><path d="m107.603 19.393-10.236 15.982c2.191 1.408 3.649 3.861 3.649 6.654h18.985c0-9.494-4.949-17.848-12.398-22.636z" fill="#f9a7a7"/></g></g></g></g><g><g><g><g><g><path d="m78.609 19.393.001.001.001-.001z" fill="#6bdddd"/></g></g></g></g><g><g><g><g><path d="m78.61 19.394c-7.45 4.786-12.4 13.141-12.4 22.635h18.985c0-2.793 1.458-5.247 3.65-6.655 0 0 0 0-.001 0z" fill="#6bdddd"/></g></g></g></g></g><g><g><g><g><path d="m107.203 35.793-15.407 11.561c-1.148.862-1.703 2.304-1.429 3.713.292 1.499 1.464 2.671 2.962 2.962 1.409.274 2.851-.281 3.713-1.429l11.561-15.407c.694-.925-.475-2.095-1.4-1.4z" fill="#4671c6"/></g></g></g></g><g><g><g><g><path d="m93.106 79.362c-20.586 0-37.333-16.748-37.333-37.334s16.747-37.333 37.333-37.333c20.585 0 37.333 16.747 37.333 37.333s-16.748 37.334-37.333 37.334zm0-70.667c-18.38 0-33.333 14.953-33.333 33.333 0 18.381 14.953 33.334 33.333 33.334s33.333-14.953 33.333-33.334c0-18.38-14.953-33.333-33.333-33.333z" fill="#3762cc"/></g></g></g></g><g><g><g><g><path d="m93.105 70.924c-15.933 0-28.896-12.963-28.896-28.896s12.962-28.896 28.896-28.896 28.896 12.963 28.896 28.896-12.962 28.896-28.896 28.896zm0-53.791c-13.728 0-24.896 11.168-24.896 24.896s11.168 24.896 24.896 24.896 24.896-11.168 24.896-24.896-11.168-24.896-24.896-24.896z" fill="#3762cc"/></g></g></g></g><g><g><g><g><path d="m85.65 189.398c4.47 3.367 10.63 3.361 15.093-.016l54.404-41.159c15.335-11.552 20.724-32.126 13.022-49.713-8.362-19.094-29.609-29.001-49.61-23.133-11.427 3.352-20.489 11.305-25.489 21.435-5-10.129-14.062-18.083-25.489-21.435-20.157-5.913-41.578 4.194-49.803 23.58-7.492 17.659-1.501 38.181 13.821 49.723z" fill="#f9a7a7"/></g></g></g></g><g><g><g><g><path d="m93.186 193.903c-3.083 0-6.165-.969-8.739-2.908l-54.053-40.718c-16.314-12.29-22.259-33.715-14.458-52.102 8.611-20.295 31.054-30.921 52.207-24.718 10.418 3.056 19.328 9.96 24.926 19.198 5.598-9.238 14.508-16.143 24.926-19.198 20.907-6.135 43.265 4.293 52.006 24.25 8.111 18.519 2.498 39.947-13.65 52.113l-54.4 41.155c-2.58 1.953-5.673 2.928-8.765 2.928zm-37.272-118.208c-15.469 0-29.979 9.156-36.295 24.043-7.083 16.692-1.662 36.161 13.183 47.344l54.052 40.718c3.737 2.816 8.953 2.81 12.683-.013l54.403-41.158c14.664-11.048 19.76-30.504 12.396-47.315-7.936-18.121-28.236-27.586-47.216-22.018-10.543 3.093-19.385 10.528-24.258 20.401-.337.682-1.032 1.114-1.793 1.114s-1.457-.433-1.793-1.114c-4.874-9.873-13.715-17.309-24.258-20.401-3.691-1.082-7.425-1.601-11.104-1.601z" fill="#3762cc"/></g></g></g></g><g><g><g><g><path d="m235.44 126.494h-16c-3.314 0-6-2.686-6-6v-48.5c0-6.627 5.373-12 12-12h4c6.627 0 12 5.373 12 12v48.5c0 3.314-2.686 6-6 6z" fill="#4671c6"/></g></g></g></g><g><g><g><g><path d="m235.44 128.494h-16c-4.411 0-8-3.589-8-8v-48.5c0-7.72 6.28-14 14-14h4c7.72 0 14 6.28 14 14v48.5c0 4.411-3.589 8-8 8zm-10-66.5c-5.514 0-10 4.486-10 10v48.5c0 2.206 1.794 4 4 4h16c2.206 0 4-1.794 4-4v-48.5c0-5.514-4.486-10-10-10z" fill="#3762cc"/></g></g></g></g></g></svg>