<svg id="_x31__x2C_5" enable-background="new 0 0 36 36" height="512" viewBox="0 0 36 36" width="512" xmlns="http://www.w3.org/2000/svg"><g><path d="m31.833 27.623c0-6.917 3.583-11.667 3.583-15s-1.916-10.333-17.249-10.333-17.584 9.417-17.584 13.083c0 17.167 31.25 24.5 31.25 12.25z" fill="#efefef"/></g><g><path d="m6.033 3.467h2v1h-2z" fill="#a4afc1" transform="matrix(.707 -.707 .707 .707 -.745 6.135)"/></g><g><path d="m1.967 7.533h2v1h-2z" fill="#a4afc1" transform="matrix(.707 -.707 .707 .707 -4.811 4.451)"/></g><g><path d="m2.644 2.967h1v2h-1z" fill="#a4afc1" transform="matrix(.707 -.707 .707 .707 -1.884 3.385)"/></g><g><path d="m27.25 22.25h-14.5c-1.105 0-2-.895-2-2v-10h18.5v10c0 1.105-.895 2-2 2z" fill="#f3f3f1"/></g><g><path d="m29.25 10.25h-18.5v-1.5c0-1.105.895-2 2-2h14.5c1.105 0 2 .895 2 2z" fill="#2fdf84"/></g><g><path d="m23.25 29.25h-14.5c-1.105 0-2-.895-2-2v-10h18.5v10c0 1.105-.895 2-2 2z" fill="#f3f3f1"/></g><g><path d="m25.25 17.25h-18.5v-1.5c0-1.105.895-2 2-2h14.5c1.105 0 2 .895 2 2z" fill="#2fdf84"/></g><g><path d="m15 6.75h-2.25c-1.105 0-2 .895-2 2v1.5h2.25v-1.5c0-1.105.895-2 2-2z" fill="#00b871"/></g><g><path d="m11 13.75h-2.25c-1.105 0-2 .895-2 2v1.5h2.25v-1.5c0-1.105.895-2 2-2z" fill="#00b871"/></g><g><path d="m10.75 10.25h2.25v3.5h-2.25z" fill="#d5dbe1"/></g><g><path d="m9 27.25v-10h-2.25v10c0 1.105.895 2 2 2h2.25c-1.105 0-2-.895-2-2z" fill="#d5dbe1"/></g><g><path d="m23.25 30h-14.5c-1.517 0-2.75-1.233-2.75-2.75v-11.5c0-1.517 1.233-2.75 2.75-2.75h14.5c1.517 0 2.75 1.233 2.75 2.75v11.5c0 1.517-1.233 2.75-2.75 2.75zm-14.5-15.5c-.689 0-1.25.561-1.25 1.25v11.5c0 .689.561 1.25 1.25 1.25h14.5c.689 0 1.25-.561 1.25-1.25v-11.5c0-.689-.561-1.25-1.25-1.25z"/></g><g><path d="m6.75 16.5h18.5v1.5h-18.5z"/></g><g><path d="m30 23h-1.5v-14.25c0-.689-.561-1.25-1.25-1.25h-14.5c-.689 0-1.25.561-1.25 1.25v2.25h-1.5v-2.25c0-1.517 1.233-2.75 2.75-2.75h14.5c1.517 0 2.75 1.233 2.75 2.75z"/></g><g><path d="m10.75 9.5h18.5v1.5h-18.5z"/></g><g><path d="m2 28.5h32v1.5h-32z"/></g></svg>